[Header]
FileType HTR
DataType HTRS
FileVersion 1
NumSegments 28
NumFrames 4
DataFrameRate 24
EulerRotationOrder ZYX
CalibrationUnits mm
RotationUnits Degrees
GlobalAxisofGravity Y
BoneLengthAxis Y
ScaleFactor 1.0
[SegmentNames&Hierarchy]
waist	GLOBAL
chest	waist
head	chest
joint2	chest
right_shoulder1	joint2
right_elbow1	right_shoulder1
right_wrist1	right_elbow1
right_hand1	right_wrist1
right_finger3	right_hand1
right_finger4	right_hand1
right_finger5	right_hand1
joint3	chest
right_shoulder2	joint3
right_elbow2	right_shoulder2
right_wrist2	right_elbow2
right_hand2	right_wrist2
right_finger6	right_hand2
right_finger7	right_hand2
right_finger8	right_hand2
Center_pelvis	waist
left_pelvs	Center_pelvis
left_leg	left_pelvs
left_knee	left_leg
left_foot	left_knee
right_pelvis	Center_pelvis
right_leg	right_pelvis
right_knee	right_leg
right_foot	right_knee
[BasePosition]
waist	0	0	0	179.9999991	0	91.33221985	1
chest	0	0	0	-2.307808268e-010	-1.984983424e-008	1.332219854	1
head	0	0	0	180	-1.481061187e-024	90	1
joint2	0	0	0	4.615476202e-010	-1.707085745e-006	90	1
right_shoulder1	0	0	0	1.916575325e-008	-1.983803253e-008	-88.02506599	1
right_elbow1	0	0	0	-180	-1.948815659e-008	-12.92899665	1
right_wrist1	0	0	0	3.256551172e-010	1.942478841e-008	1.920938916	1
right_hand1	0	0	0	136.2194085	85.17676588	-133.4832578	1
right_finger3	0	0	0	154.4596717	79.84057755	147.6247455	1
right_finger4	0	0	0	154.4596717	79.84057755	147.6247455	1
right_finger5	0	0	0	154.4596717	79.84057755	147.6247455	1
joint3	0	0	0	-180	-1.89575832e-022	90	1
right_shoulder2	0	0	0	6.774897105e-015	-7.012540931e-015	-88.02506599	1
right_elbow2	0	0	0	-180	-6.888863384e-015	-12.92899665	1
right_wrist2	0	0	0	-1.240805042e-012	-7.401196581e-011	1.920938916	1
right_hand2	0	0	0	136.2194085	85.17676588	-133.4832578	1
right_finger6	0	0	0	154.4596717	79.84057755	147.6247455	1
right_finger7	0	0	0	154.4596717	79.84057755	147.6247455	1
right_finger8	0	0	0	154.4596717	79.84057755	147.6247455	1
Center_pelvis	0	0	0	-180	-8.537716493e-007	89.87586122	1
left_pelvs	0	0	0	0	0	-1.456358634	1
left_leg	0	0	0	179.9999991	0	88.69804733	1
left_knee	0	0	0	-180	-7.863991589e-009	-2.076172838	1
left_foot	0	0	0	179.9999985	-3.055580289e-010	-90.77422016	1
right_pelvis	0	0	0	0	0	-2.39554958	1
right_leg	0	0	0	0	0	-87.75885638	1
right_knee	0	0	0	179.9999991	3.702652968e-022	-2.076172838	1
right_foot	0	0	0	180	-7.405305937e-025	-90.77422016	1
[waist]
20	0	23.89938164	-8.361856461	2.102559566	-32.30238342	0.6502476931	1.0
21	0	26.3123436	-8.361856461	2.12377286	-33.48404694	0.6039223671	1.0
22	0	24.73279762	-8.347413063	2.119529486	-33.35585403	0.6103945971	1.0
23	0	20.61782837	-8.306634903	2.107723713	-32.95969009	0.6294364929	1.0
[chest]
20	19.32523537	-0.4706298113	-11.37144661	5.421775818	35.72911072	6.609833241	1.0
21	19.32523537	-0.4706298113	-11.37144661	6.076805115	37.79946136	7.664836884	1.0
22	19.32523537	-0.4706298113	-11.37144661	5.95427227	37.86817169	7.465374947	1.0
23	19.32523537	-0.4706298113	-11.37144661	5.647941113	37.89348602	6.966721058	1.0
[head]
20	20.62318993	0.1433748305	1.492195129	3.254848957	1.879185677	6.632396221	1.0
21	20.62318993	0.1433748305	1.492195129	3.744199991	1.818174481	7.608520985	1.0
22	20.62318993	0.1433748305	1.492195129	3.743784904	1.831077814	7.40887928	1.0
23	20.62318993	0.1433748305	1.492195129	3.740880489	1.863336205	6.909775257	1.0
[joint2]
20	-1.657010078	17.01290512	0.01287616603	17.52688599	30.84036255	8.059617043	1.0
21	-1.657010078	17.01290512	0.01287616603	16.41171837	27.93338203	4.147828579	1.0
22	-1.657010078	17.01290512	0.01287616603	17.15568733	25.52001572	4.59300518	1.0
23	-1.657010078	17.01290512	0.01287616603	19.13949776	23.36922455	5.882920265	1.0
[right_shoulder1]
20	14.91590023	0.6211000085	0.9477797747	-10.80311203	-21.82818222	-48.66826248	1.0
21	14.91590023	0.6211000085	0.9477797747	-12.96207905	-21.61463356	-44.60708618	1.0
22	14.91590023	0.6211000085	0.9477797747	-12.93221188	-21.73361778	-45.29027176	1.0
23	14.91590023	0.6211000085	0.9477797747	-12.72314644	-22.15800476	-47.3629837	1.0
[right_elbow1]
20	-13.64346027	1.083028078	-0.5017899871	-10.24096584	32.20049667	29.25384903	1.0
21	-13.64346027	1.083028078	-0.5017899871	-9.03066349	31.25354385	30.88668633	1.0
22	-13.64346027	1.083028078	-0.5017899871	-9.091767311	31.7811718	30.77987099	1.0
23	-13.64346027	1.083028078	-0.5017899871	-9.244527817	33.10024643	30.51283455	1.0
[right_wrist1]
20	-11.07325459	0.004849368241	0.6145500541	-4.80606842	31.7951355	0.3079994023	1.0
21	-11.07325459	0.004849368241	0.6145500541	-4.80606842	31.7951355	0.3079994023	1.0
22	-11.07325459	0.004849368241	0.6145500541	-4.698230267	31.49392128	0.5459580421	1.0
23	-11.07325459	0.004849368241	0.6145500541	-4.376178265	30.71455383	1.259094954	1.0
[right_hand1]
20	-7.870647907	-0.6475095749	0.1588415354	13.610322	25.63029671	20.05943108	1.0
21	-7.870647907	-0.6475095749	0.1588415354	13.610322	25.63029671	20.05943108	1.0
22	-7.870647907	-0.6475095749	0.1588415354	13.610322	25.63029671	20.05943108	1.0
23	-7.870647907	-0.6475095749	0.1588415354	13.610322	25.63029671	20.05943108	1.0
[right_finger3]
20	10.07661057	3.347557783	-1.489186764	-84.28975677	13.1826582	87.76701355	1.0
21	10.07661057	3.347557783	-1.489186764	-84.28975677	13.1826582	87.76701355	1.0
22	10.07661057	3.347557783	-1.489186764	-84.28975677	13.1826582	87.76701355	1.0
23	10.07661057	3.347557783	-1.489186764	-84.28975677	13.1826582	87.76701355	1.0
[right_finger4]
20	-1.201135993	3.376283169	11.27149582	-190.2575378	16.2514534	124.4265747	1.0
21	-1.201135993	3.376283169	11.27149582	-190.2575378	16.2514534	124.4265747	1.0
22	-1.201135993	3.376283169	11.27149582	-190.2575378	16.2514534	124.4265747	1.0
23	-1.201135993	3.376283169	11.27149582	-190.2575378	16.2514534	124.4265747	1.0
[right_finger5]
20	-6.853637218	4.493112087	-5.936321735	34.39846039	4.028532028	79.4876709	1.0
21	-6.853637218	4.493112087	-5.936321735	34.39846039	4.028532028	79.4876709	1.0
22	-6.853637218	4.493112087	-5.936321735	34.39846039	4.028532028	79.4876709	1.0
23	-6.853637218	4.493112087	-5.936321735	34.39846039	4.028532028	79.4876709	1.0
[joint3]
20	-1.657010078	-17.01289368	0.01287565939	-15.19546795	20.09220886	-16.43734932	1.0
21	-1.657010078	-17.01289368	0.01287565939	-19.45680237	18.84540176	-21.6763916	1.0
22	-1.657010078	-17.01289368	0.01287565939	-19.44327354	19.00681305	-21.64226723	1.0
23	-1.657010078	-17.01289368	0.01287565939	-19.34858322	19.55631447	-21.40338707	1.0
[right_shoulder2]
20	-14.91590023	-0.6211000085	-0.9477797747	52.16448975	3.20140934	-106.4568405	1.0
21	-14.91590023	-0.6211000085	-0.9477797747	57.31167221	5.236497402	-108.4523621	1.0
22	-14.91590023	-0.6211000085	-0.9477797747	57.28988266	4.992144585	-108.9898834	1.0
23	-14.91590023	-0.6211000085	-0.9477797747	57.23540497	4.288688183	-109.1879196	1.0
[right_elbow2]
20	13.06082726	-0.03707668185	1.483248353	8.996891022	47.31486511	42.07569504	1.0
21	13.06082726	-0.03707668185	1.483248353	8.996891022	47.31486511	42.07569504	1.0
22	13.06082726	-0.03707668185	1.483248353	9.751163483	47.3175087	42.03884125	1.0
23	13.06082726	-0.03707668185	1.483248353	11.63684654	47.33599091	41.7808342	1.0
[right_wrist2]
20	11.37348366	-5.659013271	-0.5602906942	-0.8572253585	8.323850632	-22.73055649	1.0
21	11.37348366	-5.659013271	-0.5602906942	-1.556923628	5.284707546	-25.25134468	1.0
22	11.37348366	-5.659013271	-0.5602906942	-1.56795907	5.758757114	-25.32602119	1.0
23	11.37348366	-5.659013271	-0.5602906942	-1.575356364	6.943880081	-25.37608147	1.0
[right_hand2]
20	8.313048363	0.02588133886	-0.2132965624	18.71133041	22.36689186	29.74986458	1.0
21	8.313048363	0.02588133886	-0.2132965624	18.71133041	22.36689186	29.74986458	1.0
22	8.313048363	0.02588133886	-0.2132965624	18.71133041	22.36689186	29.74986458	1.0
23	8.313048363	0.02588133886	-0.2132965624	18.71133041	22.36689186	29.74986458	1.0
[right_finger6]
20	-10.07661057	-3.347557783	1.489186764	-83.6856308	28.25859642	89.45962524	1.0
21	-10.07661057	-3.347557783	1.489186764	-83.6856308	28.25859642	89.45962524	1.0
22	-10.07661057	-3.347557783	1.489186764	-83.6856308	28.25859642	89.45962524	1.0
23	-10.07661057	-3.347557783	1.489186764	-83.6856308	28.25859642	89.45962524	1.0
[right_finger7]
20	1.201135993	-3.376283169	-11.27149582	-196.815567	9.285179138	95.4122467	1.0
21	1.201135993	-3.376283169	-11.27149582	-196.815567	9.285179138	95.4122467	1.0
22	1.201135993	-3.376283169	-11.27149582	-196.815567	9.285179138	95.4122467	1.0
23	1.201135993	-3.376283169	-11.27149582	-196.815567	9.285179138	95.4122467	1.0
[right_finger8]
20	6.853637218	-4.493112087	5.936321735	33.30503464	-9.988982201	100.1356735	1.0
21	6.853637218	-4.493112087	5.936321735	33.30503464	-9.988982201	100.1356735	1.0
22	6.853637218	-4.493112087	5.936321735	33.30503464	-9.988982201	100.1356735	1.0
23	6.853637218	-4.493112087	5.936321735	33.30503464	-9.988982201	100.1356735	1.0
[Center_pelvis]
20	-5.616972446	-0.3766000271	2.04698658	11.48847866	-2.17060256	9.495656967	1.0
21	-5.616972446	-0.3766000271	2.04698658	12.72992611	-2.422622204	10.59815788	1.0
22	-5.616972446	-0.3766000271	2.04698658	12.47379017	-2.420841694	10.43349552	1.0
23	-5.616972446	-0.3766000271	2.04698658	11.75569248	-2.408378124	9.985553741	1.0
[left_pelvs]
20	11.08986378	-0.01586683653	-0.09214995801	-49.61305237	0.4217523038	-4.654780388	1.0
21	11.08986378	-0.01586683653	-0.09214995801	-50.89504242	0	-4.733228207	1.0
22	11.08986378	-0.01586683653	-0.09214995801	-49.06330872	0.1214727759	-4.552052021	1.0
23	11.08986378	-0.01586683653	-0.09214995801	-44.48397446	0.425154686	-4.079388618	1.0
[left_leg]
20	8.450808053e-008	-5.682914734	0.3641465604	4.462267876	14.37231827	0.9298058152	1.0
21	8.450808053e-008	-5.682914734	0.3641465604	4.634400845	10.44301796	1.943940043	1.0
22	8.450808053e-008	-5.682914734	0.3641465604	4.628786564	7.570658207	1.901028991	1.0
23	8.450808053e-008	-5.682914734	0.3641465604	4.614751339	4.838721752	1.785650969	1.0
[left_knee]
20	-10.69747543	0.03457061574	-5.804625669e-009	0	-59.47766113	0	1.0
21	-10.69747543	0.03457061574	-5.567892369e-009	0	-62.9782486	0	1.0
22	-10.69747543	0.03457061574	-5.314099383e-009	0	-61.69667435	0	1.0
23	-10.69747543	0.03457061574	-5.045522222e-009	0	-58.49274063	0	1.0
[left_foot]
20	-14.54718971	-0.01193539705	1.933258442e-009	0	0	0	1.0
21	-14.54718971	-0.01193539705	1.933258442e-009	0	0	0	1.0
22	-14.54718971	-0.01193539705	1.933258442e-009	0	0	0	1.0
23	-14.54718971	-0.01193539705	1.933258442e-009	0	0	0	1.0
[right_pelvis]
20	-10.5868988	0.4465443194	0.2088862956	9.91055584	3.478711367	-9.733496666	1.0
21	-10.5868988	0.4465443194	0.2088862956	16.39087677	3.204706192	-10.76104069	1.0
22	-10.5868988	0.4465443194	0.2088862956	15.70476151	3.207810163	-10.50584126	1.0
23	-10.5868988	0.4465443194	0.2088862956	13.8247118	3.215569735	-9.823004723	1.0
[right_leg]
20	0.09169664979	-5.593489647	0.05377988517	0	11.04582882	0	1.0
21	0.09169664979	-5.593489647	0.051586546	0	5.142539501	0	1.0
22	0.09169664979	-5.593489647	0.04923515767	0	1.341981292	0	1.0
23	0.09169664979	-5.593489647	0.04674678668	0	-1.73004818	0	1.0
[right_knee]
20	10.69750977	-0.03459574655	-4.02099415e-015	18.3311882	-29.36153793	-5.617567539	1.0
21	10.69750977	-0.03459574655	-3.857003489e-015	18.3311882	-29.36153793	-5.617567539	1.0
22	10.69750977	-0.03459574655	-3.681195448e-015	18.3311882	-29.36153793	-5.617567539	1.0
23	10.69750977	-0.03459574655	-3.495146143e-015	18.3311882	-29.36153793	-5.617567539	1.0
[right_foot]
20	14.54718685	0.01191107463	1.512527603e-010	-25.66132164	14.70622921	-5.356805325	1.0
21	14.54718685	0.01191107463	1.450841253e-010	-25.66132164	14.70622921	-5.356805325	1.0
22	14.54718685	0.01191107463	1.384709847e-010	-25.66132164	14.70622921	-5.356805325	1.0
23	14.54718685	0.01191107463	1.314725967e-010	-25.66132164	14.70622921	-5.356805325	1.0
[EndOfFile]
